<svg xmlns="http://www.w3.org/2000/svg" width="32" height="32" id="volume"><path fill-rule="evenodd" d="M16 0A16 16 0 0 0 0 16a16 16 0 0 0 16 16 16 16 0 0 0 16-16A16 16 0 0 0 16 0zm.42 10a.5.5 0 0 1 .516.5v11a.5.5 0 0 1-.801.398l-4.725-3.566H9.496a.5.5 0 0 1-.5-.5v-3.666a.5.5 0 0 1 .5-.5h1.914l4.725-3.564A.5.5 0 0 1 16.42 10zm-.484 1.504-4.057 3.062a.5.5 0 0 1-.3.102H9.995v2.666h1.582a.5.5 0 0 1 .3.102l4.058 3.062v-8.994zM18.5 13.46a.5.5 0 0 1 .36.15l1.642 1.643 1.64-1.643a.5.5 0 0 1 .344-.15.5.5 0 0 1 .364.857l-1.641 1.643 1.64 1.64a.5.5 0 1 1-.706.708l-1.641-1.641-1.643 1.64a.5.5 0 1 1-.707-.706l1.643-1.641-1.643-1.643a.5.5 0 0 1 .348-.857z"></path></svg>