<svg xmlns="http://www.w3.org/2000/svg" width="32" height="32" id="volume"><path fill-rule="evenodd" d="M16 0A16 16 0 0 0 0 16a16 16 0 0 0 16 16 16 16 0 0 0 16-16A16 16 0 0 0 16 0zm.484 9.955a.5.5 0 0 1 .516.5v11.092a.5.5 0 0 1-.8.398l-4.768-3.595H9.5a.5.5 0 0 1-.5-.5v-3.698a.5.5 0 0 1 .5-.5h1.932l4.767-3.595a.5.5 0 0 1 .285-.102zM16 11.46l-4.1 3.092a.5.5 0 0 1-.3.101H10v2.698h1.6a.5.5 0 0 1 .3.101l4.1 3.092v-9.084zm4.277.27a.5.5 0 0 1 .284.087c1.528.977 2.453 2.567 2.439 4.268-.014 1.701-.965 3.278-2.508 4.234a.5.5 0 0 1-.77-.386.5.5 0 0 1 .243-.463c1.284-.796 2.024-2.058 2.035-3.393.011-1.335-.708-2.606-1.979-3.418a.5.5 0 0 1 .256-.93zm-1.771 1.273a.5.5 0 0 1 .148.023C20.042 13.447 21 14.708 21 16.14c0 1.43-.96 2.69-2.348 3.111a.5.5 0 0 1-.652-.47.5.5 0 0 1 .361-.487c.983-.298 1.639-1.17 1.639-2.154 0-.985-.654-1.858-1.637-2.157a.5.5 0 0 1 .143-.98z"></path></svg>